<?xml version="1.0" standalone="no"?><!DOCTYPE svg PUBLIC "-//W3C//DTD SVG 1.1//EN" "http://www.w3.org/Graphics/SVG/1.1/DTD/svg11.dtd"><svg t="1678609111459" class="icon" viewBox="0 0 1024 1024" version="1.1" xmlns="http://www.w3.org/2000/svg" p-id="20511" xmlns:xlink="http://www.w3.org/1999/xlink" width="200" height="200"><path d="M512 0c282.763636 0 512 229.236364 512 512S794.763636 1024 512 1024 0 794.763636 0 512 229.236364 0 512 0z" fill="#F4F4F4" p-id="20512"></path><path d="M512 186.181818c14.743273 0 27.147636 13.032727 27.147636 28.509091v105.890909c0 15.476364-12.404364 28.509091-27.147636 28.509091-14.743273 0-27.147636-13.032727-27.147636-28.509091v-105.890909c0-15.476364 12.404364-28.509091 27.147636-28.509091z" fill="#333333" opacity=".1" p-id="20513"></path><path d="M678.981818 235.52c13.696 8.378182 17.722182 26.018909 10.472727 40.296727l-52.363636 94.859637c-8.052364 14.277818-24.971636 18.466909-38.667636 10.914909-13.696-8.401455-17.722182-26.030545-10.472728-40.296728l52.363637-94.871272c8.064-14.266182 24.983273-19.316364 38.679273-10.914909h-0.011637zM788.503273 346.135273a30.894545 30.894545 0 0 1-10.88 41.751272l-94.650182 56.552728c-14.242909 8.680727-31.837091 3.467636-40.203636-11.322182a30.894545 30.894545 0 0 1 10.88-41.751273l94.650181-56.541091c14.231273-7.831273 32.663273-3.490909 40.203637 11.310546z" fill="#333333" p-id="20514"></path><path d="M837.818182 512c0 14.743273-13.032727 27.147636-28.509091 27.147636h-105.890909C687.941818 539.147636 674.909091 526.743273 674.909091 512c0-14.743273 13.032727-27.147636 28.509091-27.147636h105.890909c15.476364 0 28.509091 12.404364 28.509091 27.147636z" fill="#333333" opacity=".9" p-id="20515"></path><path d="M788.48 678.981818c-8.378182 13.696-26.018909 17.722182-40.296727 10.472727l-94.859637-52.363636c-14.277818-8.052364-18.466909-24.971636-10.914909-38.667636 8.401455-13.696 26.030545-17.722182 40.296728-10.472728l94.871272 52.363637c14.266182 8.064 19.316364 24.983273 10.914909 38.679273v-0.011637z" fill="#333333" opacity=".8" p-id="20516"></path><path d="M677.864727 788.503273a30.894545 30.894545 0 0 1-41.751272-10.88l-56.552728-94.650182c-8.680727-14.242909-3.467636-31.837091 11.322182-40.203636a30.894545 30.894545 0 0 1 41.751273 10.88l56.541091 94.650181c7.831273 14.231273 3.490909 32.663273-11.310546 40.203637z" fill="#333333" opacity=".7" p-id="20517"></path><path d="M512 837.818182c-14.743273 0-27.147636-13.032727-27.147636-28.509091v-105.890909c0-15.476364 12.404364-28.509091 27.147636-28.509091 14.743273 0 27.147636 13.032727 27.147636 28.509091v105.890909c0 15.476364-12.404364 28.509091-27.147636 28.509091z" fill="#333333" opacity=".6" p-id="20518"></path><path d="M345.018182 788.48c-13.696-8.378182-17.722182-26.018909-10.472727-40.296727l52.363636-94.859637c8.052364-14.277818 24.971636-18.466909 38.667636-10.914909 13.696 8.401455 17.722182 26.030545 10.472728 40.296728l-52.363637 94.871272c-8.064 14.266182-24.983273 19.316364-38.679273 10.914909h0.011637z" fill="#333333" opacity=".5" p-id="20519"></path><path d="M235.496727 677.864727a30.894545 30.894545 0 0 1 10.88-41.751272l94.650182-56.552728c14.242909-8.680727 31.837091-3.467636 40.203636 11.322182a30.894545 30.894545 0 0 1-10.88 41.751273l-94.661818 56.541091c-14.242909 7.831273-32.674909 3.490909-40.203636-11.310546z" fill="#333333" opacity=".4" p-id="20520"></path><path d="M186.181818 512c0-14.743273 13.032727-27.147636 28.509091-27.147636h105.890909c15.476364 0 28.509091 12.404364 28.509091 27.147636 0 14.743273-13.032727 27.147636-28.509091 27.147636h-105.890909C199.214545 539.147636 186.181818 526.743273 186.181818 512z" fill="#333333" opacity=".3" p-id="20521"></path><path d="M235.52 345.018182c8.378182-13.696 26.018909-17.722182 40.296727-10.472727l94.859637 52.363636c14.277818 8.052364 18.466909 24.971636 10.914909 38.667636-8.401455 13.696-26.030545 17.722182-40.296728 10.472728l-94.871272-52.363637c-14.266182-8.064-19.316364-24.983273-10.914909-38.679273v0.011637z" fill="#333333" opacity=".23" p-id="20522"></path><path d="M346.135273 235.496727a30.894545 30.894545 0 0 1 41.751272 10.88l56.552728 94.650182c8.680727 14.242909 3.467636 31.837091-11.322182 40.203636a30.894545 30.894545 0 0 1-41.751273-10.88l-56.541091-94.661818c-7.831273-14.242909-3.490909-32.674909 11.310546-40.203636z" fill="#333333" opacity=".2" p-id="20523"></path></svg>